<svg width="9288" height="5832" viewBox="0 0 9288 5832" fill="none" xmlns="http://www.w3.org/2000/svg">
<rect width="9288" height="5832" fill="white"/>
<path d="M2575 2907.84C2575 2996.76 2496.08 3068.85 2398.72 3068.85C2301.37 3068.85 2222.44 2996.76 2222.44 2907.84C2222.44 2818.92 2301.37 2746.83 2398.72 2746.83C2496.08 2746.83 2575 2818.92 2575 2907.84Z" fill="#030237"/>
<path d="M1753.72 2916C1753.72 3107.37 1583.88 3262.5 1374.36 3262.5C1164.85 3262.5 995 3107.37 995 2916C995 2724.63 1164.85 2569.5 1374.36 2569.5C1583.88 2569.5 1753.72 2724.63 1753.72 2916Z" fill="#030237"/>
<path d="M2305.3 2772.31C2248.52 2819.64 2157.49 2869.26 2016.52 2869.26C1869.13 2865.59 1759.53 2782.78 1665.99 2693.61V3137.36C1762.65 3040.24 1876.22 2961.26 2016.52 2961.26C2127.91 2961.26 2226.55 2998.81 2305.3 3042.78V2772.31Z" fill="#030237"/>
<path d="M3624.84 3974C3713.76 3974 3785.85 4052.92 3785.85 4150.28C3785.85 4247.63 3713.76 4326.56 3624.84 4326.56C3535.92 4326.56 3463.83 4247.63 3463.83 4150.28C3463.83 4052.92 3535.92 3974 3624.84 3974Z" fill="#030237"/>
<path d="M3633 4795.28C3824.37 4795.28 3979.5 4965.12 3979.5 5174.64C3979.5 5384.15 3824.37 5554 3633 5554C3441.63 5554 3286.5 5384.15 3286.5 5174.64C3286.5 4965.12 3441.63 4795.28 3633 4795.28Z" fill="#030237"/>
<path d="M3489.31 4243.7C3536.64 4300.48 3586.26 4391.51 3586.26 4532.48C3582.59 4679.87 3499.78 4789.47 3410.61 4883.01L3854.36 4883.01C3757.24 4786.35 3678.26 4672.78 3678.26 4532.48C3678.26 4421.09 3715.81 4322.45 3759.78 4243.7L3489.31 4243.7Z" fill="#030237"/>
<path d="M3641.16 1858C3552.24 1858 3480.15 1779.08 3480.15 1681.72C3480.15 1584.37 3552.24 1505.44 3641.16 1505.44C3730.08 1505.44 3802.17 1584.37 3802.17 1681.72C3802.17 1779.08 3730.08 1858 3641.16 1858Z" fill="#030237"/>
<path d="M3633 1036.72C3441.63 1036.72 3286.5 866.878 3286.5 657.362C3286.5 447.846 3441.63 278 3633 278C3824.37 278 3979.5 447.846 3979.5 657.362C3979.5 866.878 3824.37 1036.72 3633 1036.72Z" fill="#030237"/>
<path d="M3776.69 1588.3C3729.36 1531.52 3679.74 1440.49 3679.74 1299.52C3683.41 1152.13 3766.22 1042.53 3855.39 948.992L3411.64 948.992C3508.76 1045.65 3587.74 1159.22 3587.74 1299.52C3587.74 1410.91 3550.19 1509.55 3506.22 1588.3L3776.69 1588.3Z" fill="#030237"/>
<path d="M2890.65 2162.11C2827.77 2224.99 2720.99 2220.15 2652.15 2151.31C2583.31 2082.47 2578.48 1975.69 2641.36 1912.82C2704.23 1849.94 2811.01 1854.77 2879.85 1923.61C2948.69 1992.45 2953.53 2099.23 2890.65 2162.11Z" fill="#030237"/>
<path d="M2304.15 1587.15C2168.83 1722.47 1939.04 1712.06 1790.89 1563.91C1642.74 1415.76 1632.33 1185.97 1767.65 1050.65C1902.97 915.336 2132.76 925.739 2280.91 1073.89C2429.06 1222.04 2439.47 1451.84 2304.15 1587.15Z" fill="#030237"/>
<path d="M2795.78 1875.57C2722.16 1868.89 2622.71 1839.6 2523.03 1739.92C2421.4 1633.11 2402.46 1497.05 2399.37 1367.86L2085.59 1681.64C2222.61 1681.31 2358.77 1705.77 2457.97 1804.98C2536.73 1883.74 2579.93 1980.04 2604.53 2066.82L2795.78 1875.57Z" fill="#030237"/>
<path d="M2879.11 3658.35C2941.99 3721.23 2937.15 3828 2868.31 3896.85C2799.47 3965.69 2692.69 3970.52 2629.82 3907.64C2566.94 3844.77 2571.77 3737.99 2640.61 3669.15C2709.46 3600.31 2816.23 3595.47 2879.11 3658.35Z" fill="#030237"/>
<path d="M2304.15 4244.85C2439.47 4380.17 2429.07 4609.96 2280.92 4758.11C2132.77 4906.26 1902.97 4916.66 1767.65 4781.35C1632.34 4646.03 1642.74 4416.24 1790.89 4268.09C1939.04 4119.94 2168.84 4109.53 2304.15 4244.85Z" fill="#030237"/>
<path d="M2592.57 3753.22C2585.89 3826.84 2556.6 3926.29 2456.92 4025.97C2350.11 4127.6 2214.05 4146.54 2084.86 4149.63L2398.64 4463.41C2398.31 4326.38 2422.78 4190.23 2521.98 4091.03C2600.74 4012.27 2697.05 3969.07 2783.82 3944.47L2592.57 3753.22Z" fill="#030237"/>
<path d="M2475.1 3400.22C2538.67 3550.83 2468.11 3724.46 2317.5 3788.03C2166.89 3851.6 1993.27 3781.04 1929.7 3630.43C1866.13 3479.82 1936.69 3306.19 2087.3 3242.62C2237.91 3179.05 2411.53 3249.61 2475.1 3400.22Z" fill="#030237"/>
<path d="M1816.18 3743.47C1853.76 3832.49 1812.05 3935.11 1723.03 3972.68C1634.01 4010.26 1531.39 3968.55 1493.82 3879.53C1456.24 3790.51 1497.95 3687.89 1586.97 3650.32C1675.99 3612.74 1778.61 3654.45 1816.18 3743.47Z" fill="#F23A00"/>
<path d="M3044.42 1708.84C2885.74 1748.15 2725.23 1651.39 2685.92 1492.71C2646.61 1334.03 2743.38 1173.53 2902.05 1134.21C3060.73 1094.9 3221.24 1191.67 3260.55 1350.35C3299.86 1509.03 3203.09 1669.53 3044.42 1708.84Z" fill="#030237"/>
<path d="M2808.1 1004.46C2714.31 1027.7 2619.44 970.504 2596.2 876.715C2572.97 782.926 2630.16 688.058 2723.95 664.822C2817.74 641.586 2912.61 698.781 2935.85 792.571C2959.08 886.36 2901.89 981.228 2808.1 1004.46Z" fill="#F23A00"/>
<path d="M4180.69 1731.88C4033.46 1660.83 3971.71 1483.88 4042.76 1336.65C4113.81 1189.42 4290.76 1127.67 4437.99 1198.72C4585.22 1269.78 4646.97 1446.73 4575.92 1593.95C4504.87 1741.18 4327.91 1802.93 4180.69 1731.88Z" fill="#030237"/>
<path d="M4448.52 1038.87C4361.49 996.875 4324.99 892.286 4366.99 805.265C4408.99 718.244 4513.58 681.744 4600.6 723.741C4687.62 765.737 4724.12 870.327 4682.12 957.347C4640.13 1044.37 4535.54 1080.87 4448.52 1038.87Z" fill="#F23A00"/>
<path d="M4231.06 3936.28C4392.62 3911.34 4543.81 4022.09 4568.76 4183.65C4593.7 4345.21 4482.95 4496.4 4321.39 4521.35C4159.82 4546.29 4008.63 4435.54 3983.69 4273.98C3958.74 4112.42 4069.5 3961.22 4231.06 3936.28Z" fill="#030237"/>
<path d="M4403.35 4658.99C4498.84 4644.25 4588.21 4709.71 4602.95 4805.2C4617.69 4900.69 4552.23 4990.06 4456.74 5004.8C4361.25 5019.55 4271.88 4954.08 4257.14 4858.59C4242.39 4763.1 4307.86 4673.73 4403.35 4658.99Z" fill="#F23A00"/>
<path d="M2401.92 2408.83C2334.43 2557.73 2159.02 2623.73 2010.13 2556.25C1861.23 2488.77 1795.23 2313.36 1862.71 2164.46C1930.19 2015.56 2105.6 1949.56 2254.5 2017.04C2403.39 2084.52 2469.4 2259.93 2401.92 2408.83Z" fill="#030237"/>
<path d="M1702.65 2157.8C1662.76 2245.8 1559.08 2284.82 1471.07 2244.93C1383.07 2205.04 1344.05 2101.37 1383.94 2013.36C1423.83 1925.35 1527.5 1886.34 1615.51 1926.22C1703.52 1966.11 1742.53 2069.79 1702.65 2157.8Z" fill="#F23A00"/>
<path d="M3188.36 4027.98C3337.42 4095.1 3403.85 4270.34 3336.74 4419.41C3269.63 4568.47 3094.38 4634.91 2945.31 4567.79C2796.25 4500.68 2729.82 4325.43 2796.93 4176.37C2864.04 4027.3 3039.29 3960.87 3188.36 4027.98Z" fill="#030237"/>
<path d="M2939.04 4727.87C3027.15 4767.54 3066.42 4871.12 3026.75 4959.23C2987.08 5047.33 2883.5 5086.6 2795.39 5046.93C2707.28 5007.26 2668.02 4903.68 2707.69 4815.57C2747.35 4727.47 2850.94 4688.2 2939.04 4727.87Z" fill="#F23A00"/>
<path d="M3135 3267C3111.67 3267 3093.33 3263.33 3080 3256C3067.33 3248 3058.33 3234.67 3053 3216C3047.67 3196.67 3045 3170.33 3045 3137V2607H3175V3137C3175 3167 3179 3191.33 3187 3210C3195.67 3228 3215 3237 3245 3237H3255V3267H3135ZM3630.85 3287C3560.85 3287 3501.18 3272 3451.85 3242C3402.52 3212 3364.85 3171.33 3338.85 3120C3313.52 3068.67 3300.85 3011 3300.85 2947C3300.85 2896.33 3308.85 2849.33 3324.85 2806C3341.52 2762 3364.85 2723.67 3394.85 2691C3424.85 2658.33 3459.85 2633 3499.85 2615C3539.85 2596.33 3583.52 2587 3630.85 2587C3693.52 2587 3743.85 2595.33 3781.85 2612C3820.52 2628 3849.18 2646.67 3867.85 2668C3881.18 2685.33 3888.85 2707.67 3890.85 2735C3892.85 2762.33 3893.85 2790.67 3893.85 2820H3863.85C3851.18 2759.33 3827.85 2713 3793.85 2681C3760.52 2648.33 3716.18 2632 3660.85 2632C3620.18 2632 3583.18 2641.33 3549.85 2660C3516.52 2678.67 3489.85 2711 3469.85 2757C3450.52 2802.33 3440.85 2865.67 3440.85 2947C3440.85 2985 3444.85 3021.67 3452.85 3057C3460.85 3092.33 3473.52 3124 3490.85 3152C3508.85 3180 3531.52 3202 3558.85 3218C3586.85 3234 3620.85 3242 3660.85 3242C3706.85 3242 3749.52 3230 3788.85 3206C3828.18 3181.33 3859.85 3145.67 3883.85 3099L3918.85 3126C3887.52 3181.33 3849.18 3222 3803.85 3248C3758.52 3274 3700.85 3287 3630.85 3287ZM4309.56 3287C4239.56 3287 4179.9 3272 4130.56 3242C4081.23 3212 4043.56 3171.33 4017.56 3120C3992.23 3068.67 3979.56 3011 3979.56 2947C3979.56 2896.33 3987.56 2849.33 4003.56 2806C4020.23 2762 4043.56 2723.67 4073.56 2691C4103.56 2658.33 4138.56 2633 4178.56 2615C4218.56 2596.33 4262.23 2587 4309.56 2587C4372.23 2587 4422.56 2595.33 4460.56 2612C4499.23 2628 4527.9 2646.67 4546.56 2668C4559.9 2685.33 4567.56 2707.67 4569.56 2735C4571.56 2762.33 4572.56 2790.67 4572.56 2820H4542.56C4529.9 2759.33 4506.56 2713 4472.56 2681C4439.23 2648.33 4394.9 2632 4339.56 2632C4298.9 2632 4261.9 2641.33 4228.56 2660C4195.23 2678.67 4168.56 2711 4148.56 2757C4129.23 2802.33 4119.56 2865.67 4119.56 2947C4119.56 2985 4123.56 3021.67 4131.56 3057C4139.56 3092.33 4152.23 3124 4169.56 3152C4187.56 3180 4210.23 3202 4237.56 3218C4265.56 3234 4299.56 3242 4339.56 3242C4385.56 3242 4428.23 3230 4467.56 3206C4506.9 3181.33 4538.56 3145.67 4562.56 3099L4597.56 3126C4566.23 3181.33 4527.9 3222 4482.56 3248C4437.23 3274 4379.56 3287 4309.56 3287ZM4790.27 3267C4766.94 3267 4748.61 3263.33 4735.27 3256C4722.61 3248 4713.61 3234.67 4708.27 3216C4702.94 3196.67 4700.27 3170.33 4700.27 3137V2607H4830.27V3137C4830.27 3167 4834.27 3191.33 4842.27 3210C4850.94 3228 4870.27 3237 4900.27 3237H4910.27V3267H4790.27ZM5286.13 3287C5216.13 3287 5156.46 3272 5107.13 3242C5057.79 3212 5020.13 3171.33 4994.13 3120C4968.79 3068.67 4956.13 3011 4956.13 2947C4956.13 2896.33 4964.13 2849.33 4980.13 2806C4996.79 2762 5020.13 2723.67 5050.13 2691C5080.13 2658.33 5115.13 2633 5155.13 2615C5195.13 2596.33 5238.79 2587 5286.13 2587C5348.79 2587 5399.13 2595.33 5437.13 2612C5475.79 2628 5504.46 2646.67 5523.13 2668C5536.46 2685.33 5544.13 2707.67 5546.13 2735C5548.13 2762.33 5549.13 2790.67 5549.13 2820H5519.13C5506.46 2759.33 5483.13 2713 5449.13 2681C5415.79 2648.33 5371.46 2632 5316.13 2632C5275.46 2632 5238.46 2641.33 5205.13 2660C5171.79 2678.67 5145.13 2711 5125.13 2757C5105.79 2802.33 5096.13 2865.67 5096.13 2947C5096.13 2985 5100.13 3021.67 5108.13 3057C5116.13 3092.33 5128.79 3124 5146.13 3152C5164.13 3180 5186.79 3202 5214.13 3218C5242.13 3234 5276.13 3242 5316.13 3242C5362.13 3242 5404.79 3230 5444.13 3206C5483.46 3181.33 5515.13 3145.67 5539.13 3099L5574.13 3126C5542.79 3181.33 5504.46 3222 5459.13 3248C5413.79 3274 5356.13 3287 5286.13 3287ZM5870.84 3284C5843.5 3284 5816.5 3281.33 5789.84 3276C5763.17 3270.67 5738.84 3263 5716.84 3253C5694.84 3242.33 5677.17 3229.67 5663.84 3215C5651.17 3199.67 5644.84 3182.67 5644.84 3164V3047H5672.84C5683.5 3116.33 5704.84 3165.67 5736.84 3195C5769.5 3224.33 5813.84 3239 5869.84 3239C5895.17 3239 5917.17 3235.33 5935.84 3228C5955.17 3220.67 5969.84 3210 5979.84 3196C5990.5 3181.33 5995.84 3163.33 5995.84 3142C5995.84 3113.33 5986.5 3089.67 5967.84 3071C5949.84 3051.67 5924.84 3032.33 5892.84 3013L5769.84 2939C5724.5 2912.33 5692.5 2885 5673.84 2857C5655.17 2829 5645.84 2796.67 5645.84 2760C5645.84 2707.33 5665.84 2665.67 5705.84 2635C5746.5 2604.33 5801.17 2589 5869.84 2589C5897.17 2589 5924.17 2591.67 5950.84 2597C5977.5 2602.33 6001.84 2610.33 6023.84 2621C6045.84 2631 6063.17 2643.33 6075.84 2658C6089.17 2672.67 6095.84 2689.67 6095.84 2709V2826H6067.84C6056.5 2756.67 6035.17 2707.33 6003.84 2678C5972.5 2648.67 5931.5 2634 5880.84 2634C5856.84 2634 5835.84 2638 5817.84 2646C5800.5 2654 5787.17 2665.33 5777.84 2680C5768.5 2694 5763.84 2711 5763.84 2731C5763.84 2759 5773.17 2781.67 5791.84 2799C5811.17 2816.33 5836.5 2834.33 5867.84 2853L5990.84 2926C6036.17 2952.67 6069.17 2979 6089.84 3005C6111.17 3030.33 6121.84 3061.33 6121.84 3098C6121.84 3155.33 6100.17 3200.67 6056.84 3234C6013.5 3267.33 5951.5 3284 5870.84 3284Z" fill="#F23A00"/>
</svg>
